<?xml version="1.0" encoding="UTF-8"?>
<svg width="512px" height="512px" viewBox="0 0 512 512" version="1.1"
     xmlns="http://www.w3.org/2000/svg"
     xmlns:xlink="http://www.w3.org/1999/xlink">
    <!-- Generator: Sketch 42 (36781) - http://www.bohemiancoding.com/sketch -->
    <title>youtube</title>
    <desc>Created with Sketch.</desc>
    <defs></defs>
    <g id="Icons" stroke="none" stroke-width="1" fill="none"
       fill-rule="evenodd">
        <g id="youtube" fill="#EA4335">
            <path d="M503.134862,135.528034 C496.868744,108.410459 474.593169,88.4253399 447.790086,85.4406265 C384.304105,78.3734422 320.052659,73.9646111 256.07417,74.000214 C192.095681,73.9646111 127.838302,78.3734422 64.3463863,85.4406265 C37.5433038,88.4253399 15.2795965,108.410459 9.01941232,135.528034 C0.112742654,174.133492 -1.70530257e-13,216.269576 -1.70530257e-13,256.026196 C-1.70530257e-13,295.776882 -1.70530257e-13,337.912966 8.91260349,376.524358 C15.1787215,403.618198 37.4424288,423.627052 64.2455113,426.593964 C127.731493,433.661148 191.982938,438.069979 255.967361,438.04031 C319.945851,438.069979 384.20323,433.667082 447.683278,426.593964 C474.492294,423.621118 496.761935,403.618198 503.028053,376.524358 C511.934723,337.912966 511.999995,295.776882 511.999995,256.026196 C511.999995,216.27551 512.047465,174.133492 503.134862,135.528034 M343.295448,267.816704 L222.60147,333.070965 C210.603278,339.562569 200.782799,333.705884 200.782799,320.069957 L200.782799,191.976501 C200.782799,178.33464 210.597344,172.477955 222.60147,178.969559 L343.295448,244.229754 C355.299573,250.70949 355.299573,261.331034 343.295448,267.816704"
                  id="Shape"></path>
        </g>
    </g>
</svg>