<?xml version="1.0" encoding="UTF-8" standalone="no"?>
<svg width="128px" height="87px" viewBox="0 0 128 87" version="1.1" xmlns="http://www.w3.org/2000/svg" xmlns:xlink="http://www.w3.org/1999/xlink" xmlns:sketch="http://www.bohemiancoding.com/sketch/ns">
    <!-- Generator: Sketch 3.4.2 (15855) - http://www.bohemiancoding.com/sketch -->
    <title>videos</title>
    <desc>Created with Sketch.</desc>
    <defs></defs>
    <g id="New-Icons" stroke="none" stroke-width="1" fill="none" fill-rule="evenodd" sketch:type="MSPage">
        <g id="dukt-plugin-icons" sketch:type="MSArtboardGroup" transform="translate(-320.000000, -85.000000)" fill="#FFFFFF">
            <g id="Rectangle-47-+-Rectangle-2-Copy-2" sketch:type="MSLayerGroup" transform="translate(256.000000, 0.000000)">
                <path d="M160,116.334759 L160,88.9957998 C160,86.7919844 158.207895,85 155.997221,85 L68.0027785,85 C65.7898769,85 64,86.7889805 64,88.9957998 L64,167.7542 C64,169.958016 65.792105,171.75 68.0027785,171.75 L155.997221,171.75 C158.210123,171.75 160,169.961019 160,167.7542 L160,140.834759 L188.623627,169.458386 C190.196786,171.031545 191.455209,170.498782 191.452092,168.286124 L191.340404,89.0063714 C191.337272,86.783257 190.069456,86.2653039 188.508624,87.8261354 L160,116.334759 Z" id="videos" sketch:type="MSShapeGroup"></path>
            </g>
        </g>
    </g>
</svg>