<?xml version="1.0" encoding="UTF-8"?>
<svg width="200px" height="200px" viewBox="0 0 200 200" version="1.1" xmlns="http://www.w3.org/2000/svg" xmlns:xlink="http://www.w3.org/1999/xlink">
    <!-- Generator: Sketch 48.1 (47250) - http://www.bohemiancoding.com/sketch -->
    <title>videos</title>
    <desc>Created with Sketch.</desc>
    <defs></defs>
    <g id="Page-1" stroke="none" stroke-width="1" fill="none" fill-rule="evenodd">
        <g id="videos">
            <rect id="Rectangle" fill="#27AE60" x="0" y="0" width="200" height="200" rx="100"></rect>
            <path d="M125.324943,90.5524015 L147.084552,68.7927923 C148.646299,67.2310458 149.914876,67.7618859 149.917985,69.9688044 L150.0032,130.456875 C150.006315,132.668115 148.747551,133.199389 147.180376,131.632215 L125.324943,109.776782 L125.324943,130.031042 C125.324943,132.242367 123.537186,134.035 121.328158,134.035 L53.9935442,134.035 C51.7861806,134.035 49.9967589,132.249281 49.9967589,130.031042 L49.9967589,69.9689584 C49.9967589,67.7576333 51.7845164,65.9650002 53.9935442,65.9650002 L121.328158,65.9650002 C123.535521,65.9650002 125.324943,67.7507188 125.324943,69.9689584 L125.324943,90.5524015 Z" fill="#FFFFFF"></path>
        </g>
    </g>
</svg>